<?xml version="1.0" encoding="iso-8859-1"?>
<svg version="1.1" id="Layer_1" xmlns="http://www.w3.org/2000/svg" xmlns:xlink="http://www.w3.org/1999/xlink" x="0px" y="0px"
	 viewBox="0 0 512 512" style="enable-background:new 0 0 512 512;" xml:space="preserve">
  <path style="fill:#DEDEE0;" d="M465.455,0H256H46.545c-7.23,0-13.689,3.297-17.959,8.47c-1.898,2.299-3.362,4.968-4.268,7.883
    c-0.68,2.185-1.046,4.51-1.046,6.92v465.455c0,12.853,10.42,23.273,23.273,23.273H256h209.455c12.853,0,23.273-10.42,23.273-23.273
    V23.273C488.727,10.42,478.307,0,465.455,0z"/>
  <path style="fill:#ACABB1;" d="M372.364,93.091H256H139.636c-12.853,0-23.273,10.42-23.273,23.273v232.727
    c0,12.851,10.42,23.273,23.273,23.273H256h116.364c12.853,0,23.273-10.422,23.273-23.273V116.364
    C395.636,103.511,385.216,93.091,372.364,93.091z"/>
  <path style="fill:#898890;" d="M116.364,116.364v232.727c0,12.851,10.42,23.273,23.273,23.273H256V93.091H139.636
    C126.784,93.091,116.364,103.511,116.364,116.364z"/>
  <path style="fill:#D6D5D8;" d="M139.636,372.364c-12.853,0-23.273-10.422-23.273-23.273V116.364
    c0-12.853,10.42-23.273,23.273-23.273H256V0H46.545C33.693,0,23.273,10.42,23.273,23.273v465.455
    c0,12.853,10.42,23.273,23.273,23.273H256V372.364H139.636z"/>
</svg>
